<svg xmlns="http://www.w3.org/2000/svg" xmlns:xlink="http://www.w3.org/1999/xlink" width="600" height="330" viewBox="0 0 600 330" role="img" aria-labelledby="t d">
<title id="t">Evals vs. baselines</title>
<desc id="d">Recall@10 · GRU4Rec, 1M-row run: mine 0.4502 vs popularity 0.0855; Recall@10 · 1-day prototype: mine 0.3915 vs popularity 0.07; Out-of-scope escalated · Agentic RAG: mine 5/5 vs plain RAG 0/5; In-scope answered · Agentic RAG: mine 6/6 vs plain RAG 6/6</desc>
<defs>
<linearGradient id="bg" x1="0" y1="0" x2="0" y2="1"><stop offset="0" stop-color="#fdfdfe"/><stop offset="1" stop-color="#dcdce1"/></linearGradient>
<radialGradient id="glow" cx="0.18" cy="-0.1" r="0.9"><stop offset="0" stop-color="#ffffff" stop-opacity="0.55"/><stop offset="1" stop-color="#ffffff" stop-opacity="0"/></radialGradient>
<linearGradient id="bevel" x1="0" y1="0" x2="1" y2="1"><stop offset="0" stop-color="#ffffff"/><stop offset="0.35" stop-color="#a1a1a6"/><stop offset="0.75" stop-color="#a1a1a6"/><stop offset="1" stop-color="#c7c7cc"/></linearGradient>
<linearGradient id="sweep" x1="0" y1="0" x2="1" y2="0"><stop offset="0" stop-color="#fff" stop-opacity="0"/><stop offset="0.5" stop-color="#fff" stop-opacity="0.35"/><stop offset="1" stop-color="#fff" stop-opacity="0"/></linearGradient>
<filter id="brush" x="0" y="0" width="1" height="1" color-interpolation-filters="sRGB">
<feTurbulence type="fractalNoise" baseFrequency="0.0016 1.3" numOctaves="2" seed="9" result="n"/>
<feColorMatrix in="n" type="matrix" result="hi" values="0 0 0 0 0 0 0 0 0 0 0 0 0 0 0 0.8 0 0 0 -0.4"/>
<feColorMatrix in="n" type="matrix" result="lo" values="0 0 0 0 1 0 0 0 0 1 0 0 0 0 1 -0.6 0 0 0 0.28"/>
<feMerge><feMergeNode in="lo"/><feMergeNode in="hi"/></feMerge>
</filter>
<clipPath id="clip"><rect x="1" y="1" width="598" height="328" rx="26"/></clipPath>

</defs>
<style>
text{font-family:-apple-system,BlinkMacSystemFont,'SF Pro Display','SF Pro Text','Segoe UI','Helvetica Neue',Helvetica,Arial,sans-serif;}
.mono{font-family:'SF Mono',ui-monospace,SFMono-Regular,Menlo,Consolas,'Liberation Mono',monospace;}
.num{font-variant-numeric:tabular-nums;}
.sweep{transform:translateX(-570px);animation:sweep 9.0s cubic-bezier(.45,0,.2,1) infinite;}
@keyframes sweep{0%{transform:translateX(-570px) skewX(-18deg);}45%,100%{transform:translateX(930px) skewX(-18deg);}}
.rise{animation:rise .9s cubic-bezier(.2,.7,.2,1) both;}
@keyframes rise{from{opacity:0;transform:translateY(10px);}}
.fade{animation:fade 1s ease both;}
@keyframes fade{from{opacity:0;}}
.live{animation:live 2s ease-in-out infinite;}
@keyframes live{0%,100%{opacity:1;}50%{opacity:.35;}}
.grow{transform-box:fill-box;transform-origin:left center;animation:grow 1.1s cubic-bezier(.2,.7,.2,1) both;}@keyframes grow{from{transform:scaleX(0);}}
@media (prefers-reduced-motion:reduce){*{animation:none!important;}.sweep{display:none;}}
</style>
<g clip-path="url(#clip)">
<rect width="600" height="330" fill="url(#bg)"/>
<rect width="600" height="330" filter="url(#brush)" opacity="0.32"/>
<rect width="600" height="330" fill="url(#glow)"/>
<text x="32" y="52" font-size="22" font-weight="600" fill="#1d1d1f">Evals vs. baselines</text><text x="32" y="80" class="mono" font-size="12.5" fill="#8e8e93">measured in my repos · same test sets · higher is better</text><rect x="418" y="37" width="11" height="11" rx="2" fill="#aeaeb2"/><text x="435" y="47.5" font-size="14" fill="#6e6e73">Baseline</text><rect x="515" y="37" width="11" height="11" rx="2" fill="#3a3a3c"/><text x="532" y="47.5" font-size="14" fill="#6e6e73">Mine</text><g class="rise" style="animation-delay:0.10s"><text x="32" y="112" font-size="15" fill="#3a3a3c">Recall@10 · GRU4Rec, 1M-row run<tspan fill="#8e8e93" font-size="12.5">  vs popularity</tspan></text><path d="M32.0,122.0H64.3A4,4 0 0 1 68.3,126.0V128.0A4,4 0 0 1 64.3,132.0H32.0Z" fill="#aeaeb2" class="grow" style="animation-delay:0.25s"/><text x="76.3" y="131.5" font-size="13.5" class="num" font-weight="400" fill="#6e6e73">0.086</text><path d="M32.0,135.0H218.9A4,4 0 0 1 222.9,139.0V141.0A4,4 0 0 1 218.9,145.0H32.0Z" fill="#3a3a3c" class="grow" style="animation-delay:0.31s"/><text x="230.9" y="144.5" font-size="13.5" class="num" font-weight="600" fill="#1d1d1f">0.450</text></g><g class="rise" style="animation-delay:0.18s"><text x="32" y="166" font-size="15" fill="#3a3a3c">Recall@10 · 1-day prototype<tspan fill="#8e8e93" font-size="12.5">  vs popularity</tspan></text><path d="M32.0,176.0H57.7A4,4 0 0 1 61.7,180.0V182.0A4,4 0 0 1 57.7,186.0H32.0Z" fill="#aeaeb2" class="grow" style="animation-delay:0.33s"/><text x="69.7" y="185.5" font-size="13.5" class="num" font-weight="400" fill="#6e6e73">0.070</text><path d="M32.0,189.0H194.0A4,4 0 0 1 198.0,193.0V195.0A4,4 0 0 1 194.0,199.0H32.0Z" fill="#3a3a3c" class="grow" style="animation-delay:0.39s"/><text x="206.0" y="198.5" font-size="13.5" class="num" font-weight="600" fill="#1d1d1f">0.392</text></g><g class="rise" style="animation-delay:0.26s"><text x="32" y="220" font-size="15" fill="#3a3a3c">Out-of-scope escalated · Agentic RAG<tspan fill="#8e8e93" font-size="12.5">  vs plain RAG</tspan></text><path d="" fill="#aeaeb2" class="grow" style="animation-delay:0.41s"/><text x="40.0" y="239.5" font-size="13.5" class="num" font-weight="400" fill="#6e6e73">0/5</text><path d="M32.0,243.0H452.0A4,4 0 0 1 456.0,247.0V249.0A4,4 0 0 1 452.0,253.0H32.0Z" fill="#3a3a3c" class="grow" style="animation-delay:0.47s"/><text x="464.0" y="252.5" font-size="13.5" class="num" font-weight="600" fill="#1d1d1f">5/5</text></g><g class="rise" style="animation-delay:0.34s"><text x="32" y="274" font-size="15" fill="#3a3a3c">In-scope answered · Agentic RAG<tspan fill="#8e8e93" font-size="12.5">  vs plain RAG</tspan></text><path d="M32.0,284.0H452.0A4,4 0 0 1 456.0,288.0V290.0A4,4 0 0 1 452.0,294.0H32.0Z" fill="#aeaeb2" class="grow" style="animation-delay:0.49s"/><text x="464.0" y="293.5" font-size="13.5" class="num" font-weight="400" fill="#6e6e73">6/6</text><path d="M32.0,297.0H452.0A4,4 0 0 1 456.0,301.0V303.0A4,4 0 0 1 452.0,307.0H32.0Z" fill="#3a3a3c" class="grow" style="animation-delay:0.55s"/><text x="464.0" y="306.5" font-size="13.5" class="num" font-weight="600" fill="#1d1d1f">6/6</text></g>
<rect class="sweep" x="0" y="-330" width="240" height="990" fill="url(#sweep)"/>
</g>
<rect x="1" y="1" width="598" height="328" rx="26" fill="none" stroke="url(#bevel)" stroke-width="1.5"/>
<rect x="3" y="3" width="594" height="324" rx="24" fill="none" stroke="#ffffff" stroke-opacity="0.6"/>
</svg>
